<svg height="512pt" viewBox="0 -12 512 512" width="512pt" xmlns="http://www.w3.org/2000/svg"><path d="m112.078125 120.957031c-5.515625-32.039062-14.707031-61.675781-25.886719-83.449219-17.621094-34.339843-35.324218-39.132812-47.066406-37.113281-11.742188 2.023438-26.820312 12.460938-31.945312 50.714844-3.253907 24.257813-2.007813 55.265625 3.511718 87.304687 5.488282 31.886719 22.824219 67.011719 37.214844 89.25l12.621094-8.167968 42.101562-16.96875 15.011719.773437c1.335937-25.925781-.484375-52.859375-5.5625-82.34375zm0 0" fill="#ffbd6e"/><path d="m237.984375 51.109375c-5.125-38.253906-20.203125-48.691406-31.949219-50.714844-11.738281-2.019531-29.441406 2.777344-47.066406 37.109375-11.175781 21.777344-20.371094 51.414063-25.886719 83.453125-5.453125 31.675781-7.515625 58.5-6.308593 82.003907l15.015624-.773438 42.898438 16.46875 12.621094 8.167969c7.015625-10.835938 30.417968-49.230469 37.164062-88.410157 5.515625-32.039062 6.761719-63.046874 3.511719-87.304687zm0 0" fill="#ff9500"/><path d="m384.175781 203.300781c1.335938-25.929687-.484375-52.863281-5.5625-82.34375-5.511719-32.039062-14.707031-61.675781-25.882812-83.449219-17.628907-34.339843-35.328125-39.132812-47.070313-37.113281-11.746094 2.023438-26.820312 12.460938-31.945312 50.714844-3.253906 24.261719-2.003906 55.265625 3.511718 87.304687 5.492188 31.890626 22.824219 67.015626 37.21875 89.25l12.621094-8.167968 42.097656-16.96875zm0 0" fill="#963b11"/><path d="m505.523438 51.109375c-5.128907-38.253906-20.203126-48.691406-31.949219-50.714844-11.742188-2.019531-29.441407 2.777344-47.066407 37.109375-11.179687 21.777344-20.371093 51.414063-25.886718 83.453125-5.453125 31.671875-7.515625 58.496094-6.308594 82.003907l15.015625-.773438 42.898437 16.46875 12.621094 8.167969c7.011719-10.835938 30.414063-49.230469 37.160156-88.410157 5.519532-32.039062 6.765626-63.046874 3.515626-87.304687zm0 0" fill="#822906"/><path d="m244.464844 338.296875c0 21.410156-13.929688 40.8125-39.21875 54.644531-18.769532 10.261719-42.492188 16.664063-67.980469 18.480469-4.949219.351563-9.972656.53125-15.035156.53125-5.058594 0-10.082031-.179687-15.03125-.53125-25.488281-1.816406-49.210938-8.21875-67.980469-18.480469-25.289062-13.832031-39.21875-33.234375-39.21875-54.644531 0-9.378906 2.714844-18.460937 8.078125-27 3.136719-4.988281 4.167969-11.152344 2.90625-17.378906-1.023437-5.058594-1.542969-10.230469-1.542969-15.382813 0-25.464844 12.175782-49.1875 34.296875-66.796875 21.117188-16.808593 48.988281-26.070312 78.492188-26.070312 29.496093 0 57.378906 9.261719 78.488281 26.070312 22.128906 17.609375 34.304688 41.332031 34.304688 66.796875 0 5.152344-.519532 10.332032-1.542969 15.382813-1.261719 6.226562-.230469 12.390625 2.894531 17.378906 5.375 8.539063 8.089844 17.621094 8.089844 27zm0 0" fill="#fcf2b6"/><path d="m161.539062 350.015625-17.613281-24.371094-21.695312 15.679688-21.691407-15.679688-17.613281 24.371094 24.273438 17.542969v43.863281c4.949219.351563 9.96875.53125 15.03125.53125s10.082031-.179687 15.035156-.53125v-43.867187zm0 0" fill="#ffbd6e"/><path d="m512 338.296875c0 21.410156-13.929688 40.8125-39.21875 54.644531-18.769531 10.261719-42.492188 16.664063-67.980469 18.480469-4.949219.351563-9.972656.53125-15.03125.53125-5.0625 0-10.085937-.179687-15.035156-.53125-25.488281-1.816406-49.210937-8.21875-67.980469-18.480469-25.289062-13.832031-39.21875-33.234375-39.21875-54.644531 0-9.378906 2.714844-18.460937 8.089844-27 3.125-4.988281 4.15625-11.152344 2.894531-17.378906-1.023437-5.050781-1.542969-10.230469-1.542969-15.382813 0-25.464844 12.175782-49.1875 34.304688-66.796875 21.109375-16.808593 48.992188-26.070312 78.488281-26.070312 29.503907 0 57.375 9.261719 78.492188 26.070312 22.121093 17.609375 34.296875 41.332031 34.296875 66.796875 0 5.152344-.519532 10.324219-1.542969 15.382813-1.261719 6.226562-.230469 12.390625 2.90625 17.378906 5.363281 8.539063 8.078125 17.621094 8.078125 27zm0 0" fill="#94572e"/><path d="m429.074219 350.015625-17.609375-24.371094-21.695313 15.679688-21.695312-15.679688-17.609375 24.371094 24.269531 17.539063v43.867187c4.953125.351563 9.972656.53125 15.035156.53125s10.082031-.179687 15.03125-.53125v-43.863281zm0 0" fill="#963b11"/><path d="m256.324219 489.375 37.515625-37.519531c9.527344-9.527344 9.527344-24.972657 0-34.5-9.527344-9.527344-24.972656-9.527344-34.5 0l-3.019532 3.015625-3.175781-3.175782c-9.527343-9.527343-24.972656-9.527343-34.5 0-9.527343 9.527344-9.527343 24.972657-.003906 34.5zm0 0" fill="#ff636e"/><path d="m236.375 311.296875c-3.125-4.988281-4.15625-11.152344-2.894531-17.378906 1.023437-5.050781 1.542969-10.230469 1.542969-15.382813 0-25.464844-12.175782-49.1875-34.304688-66.796875-21.109375-16.808593-48.992188-26.070312-78.488281-26.070312v226.285156c5.0625 0 10.082031-.179687 15.035156-.53125 25.484375-1.816406 49.207031-8.21875 67.980469-18.480469 25.285156-13.832031 39.21875-33.234375 39.21875-54.644531 0-9.378906-2.714844-18.460937-8.089844-27zm0 0" fill="#ffbd6e"/><path d="m143.925781 325.644531-21.695312 15.679688v70.628906c5.0625 0 10.085937-.179687 15.035156-.53125v-43.867187l24.273437-17.539063zm0 0" fill="#ff9500"/><path d="m293.839844 417.355469c-9.527344-9.527344-24.972656-9.527344-34.5 0l-3.019532 3.015625-.320312-.324219v69l.324219.324219 37.515625-37.515625c9.527344-9.527344 9.527344-24.972657 0-34.5zm0 0" fill="#ff475a"/><path d="m503.921875 311.296875c-3.136719-4.988281-4.167969-11.152344-2.90625-17.378906 1.023437-5.058594 1.542969-10.230469 1.542969-15.382813 0-25.464844-12.175782-49.1875-34.296875-66.796875-21.117188-16.808593-48.988281-26.070312-78.492188-26.070312v226.285156c5.058594 0 10.082031-.179687 15.03125-.53125 25.488281-1.816406 49.210938-8.21875 67.980469-18.480469 25.289062-13.832031 39.21875-33.234375 39.21875-54.644531 0-9.378906-2.714844-18.460937-8.078125-27zm0 0" fill="#963b11"/><path d="m411.464844 325.644531-21.695313 15.679688v70.628906c5.058594 0 10.082031-.179687 15.03125-.53125v-43.867187l24.273438-17.539063zm0 0" fill="#822906"/></svg>